# xmcd CD database file
#
# Track frame offsets:
#	150
#	15262
#	32865
#	48155
#	62580
#	77390
#	91395
#	105715
#	126282
#	139265
#	151927
#	166187
#	183640
#	203470
#	217087
#
# Disc length: 3087 seconds
#
# Revision: 0
# Processed by: cddbd v1.4PL0 Copyright (c) Steve Scherf et al.
# Submitted via: CDex 1.50
#
DISCID=be0c0d0f
DTITLE=Line Dancing Hits - Get In Line and Dance 4
DYEAR=1998
DGENRE=Country
TTITLE0=Becky Hobbs - Country Girls
TTITLE1=Ellen Woloshkin - Warning Label
TTITLE2=Haley Sisters - Wild Angels
TTITLE3=Janis Carnes - Draggin' My Chains
TTITLE4=Sue James - Nothing Works Without You
TTITLE5=Marylou Greenwood - Face To Face
TTITLE6=Caroline Hetherton - Lies
TTITLE7=Robin Lee Bruce - If You Want Me To Dance
TTITLE8=Coley McCabe - I Want It All
TTITLE9=Becky Hobbs - Yellow Pages Under Blue
TTITLE10=Haley Sisters - Take Me As I Am
TTITLE11=Sue James - Call 911
TTITLE12=Sue James - Girls Just Wanna Dance
TTITLE13=Becky Hobbs - From Oklahoma With Love
TTITLE14=Anne Wilson - Call Me Darling
EXTD=YEAR: 1998
EXTT0=
EXTT1=
EXTT2=
EXTT3=
EXTT4=
EXTT5=
EXTT6=
EXTT7=
EXTT8=
EXTT9=
EXTT10=
EXTT11=
EXTT12=
EXTT13=
EXTT14=
PLAYORDER=
